<svg width="36" height="36" viewBox="0 0 36 36" fill="none" xmlns="http://www.w3.org/2000/svg">
<path d="M18 3C26.2845 3 33 9.7155 33 18C33 26.2845 26.2845 33 18 33C15.3492 33.0043 12.745 32.3028 10.455 30.9675L3.00602 33L5.03402 25.548C3.69766 23.2573 2.99559 20.652 3.00002 18C3.00002 9.7155 9.71552 3 18 3ZM12.888 10.95L12.588 10.962C12.3938 10.9738 12.204 11.0249 12.03 11.112C11.8673 11.2041 11.7188 11.3193 11.589 11.454C11.409 11.6235 11.307 11.7705 11.1975 11.913C10.6427 12.6344 10.344 13.52 10.3485 14.43C10.3515 15.165 10.5435 15.8805 10.8435 16.5495C11.457 17.9025 12.4665 19.335 13.7985 20.6625C14.1195 20.982 14.4345 21.303 14.7735 21.6015C16.4286 23.0587 18.4009 24.1096 20.5335 24.6705L21.3855 24.801C21.663 24.816 21.9405 24.795 22.2195 24.7815C22.6564 24.7589 23.0829 24.6407 23.469 24.435C23.6655 24.3338 23.8572 24.2237 24.0435 24.105C24.0435 24.105 24.108 24.063 24.231 23.97C24.4335 23.82 24.558 23.7135 24.726 23.538C24.8505 23.409 24.9585 23.2575 25.041 23.085C25.158 22.8405 25.275 22.374 25.323 21.9855C25.359 21.6885 25.3485 21.5265 25.344 21.426C25.338 21.2655 25.2045 21.099 25.059 21.0285L24.186 20.637C24.186 20.637 22.881 20.0685 22.083 19.7055C21.9995 19.669 21.91 19.6482 21.819 19.644C21.7164 19.6335 21.6127 19.645 21.5149 19.6779C21.4171 19.7107 21.3275 19.7641 21.252 19.8345C21.2445 19.8315 21.144 19.917 20.0595 21.231C19.9973 21.3146 19.9115 21.3779 19.8132 21.4126C19.7149 21.4473 19.6085 21.452 19.5075 21.426C19.4098 21.3998 19.3141 21.3667 19.221 21.327C19.035 21.249 18.9705 21.219 18.843 21.165C17.9821 20.7893 17.1851 20.2817 16.4805 19.6605C16.2915 19.4955 16.116 19.3155 15.936 19.1415C15.3459 18.5763 14.8316 17.937 14.406 17.2395L14.3175 17.097C14.254 17.0012 14.2026 16.898 14.1645 16.7895C14.1075 16.569 14.256 16.392 14.256 16.392C14.256 16.392 14.6205 15.993 14.79 15.777C14.955 15.567 15.0945 15.363 15.1845 15.2175C15.3615 14.9325 15.417 14.64 15.324 14.4135C14.904 13.3875 14.469 12.366 14.022 11.352C13.9335 11.151 13.671 11.007 13.4325 10.9785C13.3515 10.9695 13.2705 10.9605 13.1895 10.9545C12.9881 10.9445 12.7862 10.9465 12.585 10.9605L12.888 10.95Z" fill="white"/>
</svg>
