<svg width="42" height="42" viewBox="0 0 42 42" fill="none" xmlns="http://www.w3.org/2000/svg">
<path d="M33.3375 8.59248C31.7331 6.97185 29.8221 5.6869 27.7159 4.81257C25.6097 3.93824 23.3505 3.49204 21.07 3.49998C11.515 3.49998 3.72752 11.2875 3.72752 20.8425C3.72752 23.905 4.53252 26.88 6.03752 29.505L3.58752 38.5L12.775 36.085C15.3125 37.4675 18.165 38.2025 21.07 38.2025C30.625 38.2025 38.4125 30.415 38.4125 20.86C38.4125 16.2225 36.61 11.865 33.3375 8.59248ZM21.07 35.2625C18.48 35.2625 15.9425 34.5625 13.72 33.25L13.195 32.935L7.73502 34.37L9.18752 29.05L8.83752 28.5075C7.39858 26.2097 6.63452 23.5537 6.63252 20.8425C6.63252 12.8975 13.1075 6.42248 21.0525 6.42248C24.9025 6.42248 28.525 7.92748 31.2375 10.6575C32.5806 11.9944 33.645 13.5846 34.369 15.336C35.0929 17.0873 35.4621 18.9649 35.455 20.86C35.49 28.805 29.015 35.2625 21.07 35.2625ZM28.98 24.4825C28.5425 24.2725 26.4075 23.2225 26.0225 23.065C25.62 22.925 25.34 22.855 25.0425 23.275C24.745 23.7125 23.9225 24.6925 23.6775 24.9725C23.4325 25.27 23.17 25.305 22.7325 25.0775C22.295 24.8675 20.895 24.395 19.25 22.925C17.955 21.77 17.0975 20.3525 16.835 19.915C16.59 19.4775 16.8 19.25 17.0275 19.0225C17.22 18.83 17.465 18.515 17.675 18.27C17.885 18.025 17.9725 17.8325 18.1125 17.5525C18.2525 17.255 18.1825 17.01 18.0775 16.8C17.9725 16.59 17.0975 14.455 16.7475 13.58C16.3975 12.74 16.03 12.845 15.7675 12.8275H14.9275C14.63 12.8275 14.175 12.9325 13.7725 13.37C13.3875 13.8075 12.2675 14.8575 12.2675 16.9925C12.2675 19.1275 13.825 21.1925 14.035 21.4725C14.245 21.77 17.0975 26.145 21.4375 28.0175C22.47 28.4725 23.275 28.735 23.905 28.9275C24.9375 29.26 25.8825 29.2075 26.635 29.1025C27.475 28.98 29.2075 28.0525 29.5575 27.0375C29.925 26.0225 29.925 25.165 29.8025 24.9725C29.68 24.78 29.4175 24.6925 28.98 24.4825Z" fill="#161616"/>
</svg>
